/vscmnt/brussel_pixiu_data/_data_brussel/112/vsc11236/PredSimResults/SUBJ04mtu3D/weighted-LRposFixed/expIG/worker_04.mot
version=1
nRows=8
nColumns=50
inDegrees=yes
endheader
                time	         pelvis_tilt	         pelvis_list	     pelvis_rotation	           pelvis_tx	           pelvis_ty	           pelvis_tz	       hip_flexion_r	     hip_adduction_r	      hip_rotation_r	        knee_angle_r	       ankle_angle_r	         mtp_angle_r	       hip_flexion_l	     hip_adduction_l	      hip_rotation_l	        knee_angle_l	       ankle_angle_l	         mtp_angle_l	    lumbar_extension	      lumbar_bending	     lumbar_rotation	 ercspn_r/activation	 intobl_r/activation	 extobl_r/activation	    abd_r/activation	    add_r/activation	hamstrings_r/activation	bifemsh_r/activation	glut_max_r/activation	iliopsoas_r/activation	rect_fem_r/activation	  vasti_r/activation	gastroc_r/activation	 soleus_r/activation	tib_ant_r/activation	 ercspn_l/activation	 intobl_l/activation	 extobl_l/activation	    abd_l/activation	    add_l/activation	hamstrings_l/activation	bifemsh_l/activation	glut_max_l/activation	iliopsoas_l/activation	rect_fem_l/activation	  vasti_l/activation	gastroc_l/activation	 soleus_l/activation	tib_ant_l/activation	
          0.00000000	         -6.18580066	         -4.84071523	         12.56249942	          0.00000000	          0.88170502	         -0.02189156	         25.61147545	          0.11632153	         -5.18801957	          2.22855242	          5.50986238	          0.21732286	         -7.76461998	         -4.20757416	         15.20860458	         -8.65654712	         12.18716965	         24.13413555	         -2.39634903	          1.82818628	         -1.84596464	          0.09683144	          0.16951707	          0.01992238	          0.02262762	          0.11116775	          0.02700868	          0.01000000	          0.00999999	          0.05738348	          0.01373835	          0.01860589	          0.00999999	          0.00999999	          0.27189032	          0.03960095	          0.00999999	          0.00999999	          0.08213775	          0.00999999	          0.01923015	          0.14150813	          0.07922019	          0.33320033	          0.00999999	          0.00999999	          0.31245891	          0.29934344	          0.01512749	
          0.01379635	         -6.30584553	         -4.71800035	         12.46415452	          0.01532741	          0.87975176	         -0.02082006	         25.30306288	          0.38395188	         -4.10463450	          1.50637546	          5.12474460	          0.22212996	         -8.00968228	         -4.07841124	         14.42707167	         -9.96208795	         11.93916751	         25.85456014	         -2.09109118	          2.12773413	         -2.10236343	          0.07872864	          0.16154786	          0.01619786	          0.01839735	          0.14807699	          0.02690337	          0.00999999	          0.01269910	          0.04665554	          0.01116994	          0.01512749	          0.01714448	          0.01778539	          0.27452214	          0.06586837	          0.00999999	          0.00999999	          0.06678196	          0.02836635	          0.01827183	          0.11505295	          0.06440985	          0.30879416	          0.00999999	          0.00999999	          0.28858625	          0.29250354	          0.01229938	
          0.02759270	         -6.40684058	         -4.58744958	         12.29432231	          0.03105858	          0.87794850	         -0.01966417	         24.85457631	          0.65264208	         -3.04860905	          0.77017209	          4.69449458	          0.21451803	         -8.18602660	         -3.92153151	         13.60057327	        -11.48720982	         11.56865448	         27.62376074	         -1.76802344	          2.44399005	         -2.34704343	          0.06748525	          0.16797383	          0.01316964	          0.02576452	          0.12039375	          0.03230045	          0.04520526	          0.02864271	          0.03793321	          0.00999999	          0.01229938	          0.01393929	          0.01446038	          0.31475317	          0.08512023	          0.00999999	          0.00999999	          0.05429696	          0.04649262	          0.01563606	          0.09354361	          0.05236832	          0.27584315	          0.00999999	          0.00999999	          0.26251200	          0.27841174	          0.00999999	
          0.04138905	         -6.49003018	         -4.45676776	         12.04446079	          0.04697809	          0.87651240	         -0.01840548	         24.27748853	          0.94170739	         -2.06611782	          0.25919104	          4.12894145	          0.19921034	         -8.22399564	         -3.73395502	         12.72715583	        -13.31195535	         11.01052328	         29.43729333	         -1.44841474	          2.78567455	         -2.57677714	          0.07103157	          0.13769974	          0.01070756	          0.05588446	          0.09788594	          0.03624570	          0.03675406	          0.04453179	          0.03084154	          0.00999999	          0.00999999	          0.01133332	          0.01175699	          0.34264416	          0.10769971	          0.00999999	          0.00999999	          0.04414605	          0.04316487	          0.01633250	          0.07605548	          0.04257797	          0.23996742	          0.00999999	          0.00999999	          0.21864926	          0.25755836	          0.00999999	
          0.05518540	         -6.55579284	         -4.32655698	         11.71764728	          0.06291500	          0.87562294	         -0.01705921	         23.62251251	          1.25095476	         -1.16526645	         -0.15202279	          3.63441514	          0.18280431	         -8.08459832	         -3.51400273	         11.79405747	        -15.46339446	         10.21128752	         31.23564477	         -1.14520231	          3.15233302	         -2.78780240	          0.06584090	          0.11195655	          0.00999999	          0.07871900	          0.08662757	          0.04118597	          0.02988283	          0.04982374	          0.02507566	          0.00999999	          0.02154731	          0.00999999	          0.00999999	          0.36751637	          0.12581087	          0.00999999	          0.00999999	          0.03589288	          0.04989475	          0.02105412	          0.06183678	          0.03461795	          0.21663141	          0.00999999	          0.00999999	          0.17777242	          0.22048792	          0.00999999	
          0.06898175	         -6.60441206	         -4.19435939	         11.31936294	          0.07874321	          0.87535389	         -0.01564588	         22.90806330	          1.57028583	         -0.34308773	         -0.50071959	          3.27861792	          0.16774866	         -7.74571785	         -3.26178205	         10.78491647	        -17.95026489	          9.16897866	         32.88550488	         -0.86693266	          3.53759869	         -2.97576500	          0.05791988	          0.09102609	          0.00999999	          0.10190898	          0.08322937	          0.04473930	          0.02429618	          0.04577451	          0.02038772	          0.00999999	          0.02976969	          0.00999999	          0.00999999	          0.37758886	          0.13910050	          0.00999999	          0.00999999	          0.02918264	          0.06378876	          0.02710420	          0.05027629	          0.02814607	          0.19661514	          0.00999999	          0.00999999	          0.14453757	          0.17926734	          0.00999999	
          0.08277810	         -6.63663830	         -4.05399896	         10.85524059	          0.09433884	          0.87571089	         -0.01418972	         22.14498690	          1.88335317	          0.40786327	         -0.79774235	          3.08143977	          0.15502068	         -7.19160429	         -2.97815509	          9.67931981	        -20.77132884	          7.92944077	         34.16668288	         -0.62417809	          3.93210817	         -3.13861798	          0.04836503	          0.07400861	          0.00999999	          0.11753041	          0.06766950	          0.04670064	          0.01975397	          0.04100518	          0.01657620	          0.00999999	          0.03943264	          0.00999999	          0.00999999	          0.37394467	          0.14772476	          0.00999999	          0.00999999	          0.02372690	          0.07894982	          0.03387676	          0.04087706	          0.02288411	          0.17567220	          0.00999999	          0.00999999	          0.11751603	          0.14575301	          0.00999999	
          0.09657445	         -6.65379640	         -3.89105184	         10.33062358	          0.10959857	          0.87668665	         -0.01271339	         21.33455441	          2.16763303	          1.09566633	         -1.03304237	          3.03076950	          0.14666117	         -6.41570675	         -2.66351591	          8.45886066	        -23.91238072	          6.58165313	         34.76601144	         -0.42767231	          4.31767991	         -3.27552794	          0.04547482	          0.06017258	          0.00999999	          0.12316280	          0.05501858	          0.04803599	          0.01606093	          0.04010400	          0.01347726	          0.00999999	          0.03206068	          0.00999999	          0.00999999	          0.35989473	          0.14984714	          0.00999999	          0.00999999	          0.01929112	          0.09135243	          0.03558627	          0.04500282	          0.01860589	          0.15479239	          0.00999999	          0.00999999	          0.09554621	          0.11850424	          0.00999999	
